<svg width="553" height="91" viewBox="0 0 553 91" fill="none" xmlns="http://www.w3.org/2000/svg">
<path d="M160.236 56.408V48.732H172.016C176.069 48.732 179.084 47.9467 181.06 46.376C183.087 44.7547 184.1 42.0947 184.1 38.396C184.1 35.1027 183.163 32.62 181.288 30.948C179.413 29.276 176.525 28.44 172.624 28.44H160.236V20.84H172.852C176.095 20.84 179.008 21.22 181.592 21.98C184.176 22.74 186.38 23.8547 188.204 25.324C190.028 26.7933 191.421 28.668 192.384 30.948C193.347 33.1773 193.828 35.7613 193.828 38.7C193.828 42.5507 192.941 45.7933 191.168 48.428C189.445 51.0627 186.861 53.064 183.416 54.432C180.021 55.7493 175.791 56.408 170.724 56.408H160.236ZM153.928 71V20.84H163.504V71H153.928ZM210.537 71.988C208.359 71.988 206.408 71.5827 204.685 70.772C202.963 69.9107 201.595 68.644 200.581 66.972C199.619 65.3 199.137 63.2227 199.137 60.74C199.137 58.6627 199.517 56.8893 200.277 55.42C201.088 53.9507 202.279 52.76 203.849 51.848C205.42 50.8853 207.371 50.1 209.701 49.492C212.032 48.8333 214.768 48.276 217.909 47.82C219.632 47.5667 221.025 47.3133 222.089 47.06C223.204 46.8067 224.015 46.4267 224.521 45.92C225.028 45.3627 225.281 44.552 225.281 43.488C225.281 41.9173 224.724 40.5747 223.609 39.46C222.545 38.2947 220.797 37.712 218.365 37.712C216.896 37.712 215.477 37.9653 214.109 38.472C212.792 38.9787 211.652 39.7893 210.689 40.904C209.727 41.968 209.068 43.3867 208.713 45.16L200.125 42.5C200.683 40.4733 201.493 38.7253 202.557 37.256C203.621 35.736 204.939 34.444 206.509 33.38C208.08 32.316 209.879 31.5307 211.905 31.024C213.932 30.5173 216.161 30.264 218.593 30.264C222.292 30.264 225.332 30.872 227.713 32.088C230.095 33.2533 231.868 35.1027 233.033 37.636C234.199 40.1187 234.781 43.336 234.781 47.288V54.736C234.781 56.4587 234.807 58.2573 234.857 60.132C234.959 61.956 235.06 63.8053 235.161 65.68C235.313 67.504 235.491 69.2773 235.693 71H227.105C226.903 69.5813 226.725 68.0613 226.573 66.44C226.421 64.8187 226.295 63.172 226.193 61.5H224.977C224.268 63.4253 223.255 65.1987 221.937 66.82C220.62 68.3907 218.999 69.6573 217.073 70.62C215.199 71.532 213.02 71.988 210.537 71.988ZM214.337 64.92C215.351 64.92 216.364 64.7427 217.377 64.388C218.441 64.0333 219.48 63.5013 220.493 62.792C221.507 62.0827 222.444 61.2213 223.305 60.208C224.167 59.144 224.901 57.9027 225.509 56.484L225.357 49.72L227.181 50.024C226.32 50.7333 225.256 51.2907 223.989 51.696C222.723 52.1013 221.38 52.4053 219.961 52.608C218.593 52.8107 217.2 53.064 215.781 53.368C214.413 53.6213 213.172 53.976 212.057 54.432C210.943 54.8373 210.056 55.4453 209.397 56.256C208.739 57.016 208.409 58.08 208.409 59.448C208.409 61.1707 208.967 62.5133 210.081 63.476C211.196 64.4387 212.615 64.92 214.337 64.92ZM260.484 71.988C257.799 71.988 255.367 71.7093 253.188 71.152C251.06 70.6453 249.236 69.9107 247.716 68.948C246.196 67.9347 244.98 66.744 244.068 65.376C243.156 63.9573 242.599 62.3867 242.396 60.664L249.92 57.852C250.021 59.1693 250.528 60.36 251.44 61.424C252.352 62.4373 253.619 63.248 255.24 63.856C256.861 64.464 258.812 64.768 261.092 64.768C263.625 64.768 265.576 64.388 266.944 63.628C268.363 62.8173 269.072 61.6773 269.072 60.208C269.072 59.144 268.692 58.308 267.932 57.7C267.172 57.0413 266.057 56.5093 264.588 56.104C263.169 55.648 261.447 55.2173 259.42 54.812C257.545 54.4067 255.645 53.9507 253.72 53.444C251.845 52.8867 250.097 52.1773 248.476 51.316C246.905 50.404 245.613 49.2387 244.6 47.82C243.637 46.3507 243.156 44.5013 243.156 42.272C243.156 39.84 243.789 37.7373 245.056 35.964C246.373 34.1907 248.248 32.7973 250.68 31.784C253.163 30.7707 256.152 30.264 259.648 30.264C262.941 30.264 265.779 30.72 268.16 31.632C270.592 32.544 272.568 33.8613 274.088 35.584C275.608 37.256 276.571 39.2573 276.976 41.588L269.072 44.096C268.92 42.6773 268.439 41.4867 267.628 40.524C266.817 39.5107 265.728 38.7507 264.36 38.244C262.992 37.7373 261.396 37.484 259.572 37.484C257.241 37.484 255.417 37.8893 254.1 38.7C252.783 39.5107 252.124 40.6 252.124 41.968C252.124 43.0827 252.529 43.9693 253.34 44.628C254.201 45.2867 255.367 45.8187 256.836 46.224C258.356 46.6293 260.079 47.0347 262.004 47.44C264.031 47.8453 265.981 48.3267 267.856 48.884C269.781 49.3907 271.504 50.0747 273.024 50.936C274.544 51.7973 275.76 52.9373 276.672 54.356C277.584 55.724 278.04 57.4973 278.04 59.676C278.04 62.3107 277.331 64.5653 275.912 66.44C274.493 68.264 272.467 69.6573 269.832 70.62C267.248 71.532 264.132 71.988 260.484 71.988ZM302.121 71.988C299.436 71.988 297.004 71.7093 294.825 71.152C292.697 70.6453 290.873 69.9107 289.353 68.948C287.833 67.9347 286.617 66.744 285.705 65.376C284.793 63.9573 284.236 62.3867 284.033 60.664L291.557 57.852C291.658 59.1693 292.165 60.36 293.077 61.424C293.989 62.4373 295.256 63.248 296.877 63.856C298.498 64.464 300.449 64.768 302.729 64.768C305.262 64.768 307.213 64.388 308.581 63.628C310 62.8173 310.709 61.6773 310.709 60.208C310.709 59.144 310.329 58.308 309.569 57.7C308.809 57.0413 307.694 56.5093 306.225 56.104C304.806 55.648 303.084 55.2173 301.057 54.812C299.182 54.4067 297.282 53.9507 295.357 53.444C293.482 52.8867 291.734 52.1773 290.113 51.316C288.542 50.404 287.25 49.2387 286.237 47.82C285.274 46.3507 284.793 44.5013 284.793 42.272C284.793 39.84 285.426 37.7373 286.693 35.964C288.01 34.1907 289.885 32.7973 292.317 31.784C294.8 30.7707 297.789 30.264 301.285 30.264C304.578 30.264 307.416 30.72 309.797 31.632C312.229 32.544 314.205 33.8613 315.725 35.584C317.245 37.256 318.208 39.2573 318.613 41.588L310.709 44.096C310.557 42.6773 310.076 41.4867 309.265 40.524C308.454 39.5107 307.365 38.7507 305.997 38.244C304.629 37.7373 303.033 37.484 301.209 37.484C298.878 37.484 297.054 37.8893 295.737 38.7C294.42 39.5107 293.761 40.6 293.761 41.968C293.761 43.0827 294.166 43.9693 294.977 44.628C295.838 45.2867 297.004 45.8187 298.473 46.224C299.993 46.6293 301.716 47.0347 303.641 47.44C305.668 47.8453 307.618 48.3267 309.493 48.884C311.418 49.3907 313.141 50.0747 314.661 50.936C316.181 51.7973 317.397 52.9373 318.309 54.356C319.221 55.724 319.677 57.4973 319.677 59.676C319.677 62.3107 318.968 64.5653 317.549 66.44C316.13 68.264 314.104 69.6573 311.469 70.62C308.885 71.532 305.769 71.988 302.121 71.988ZM327.736 71V31.252H337.312V71H327.736ZM332.524 25.02C330.599 25.02 329.104 24.6147 328.04 23.804C327.027 22.9427 326.52 21.7267 326.52 20.156C326.52 18.5853 327.027 17.3947 328.04 16.584C329.104 15.7227 330.599 15.292 332.524 15.292C334.551 15.292 336.071 15.6973 337.084 16.508C338.097 17.3187 338.604 18.5347 338.604 20.156C338.604 21.7267 338.072 22.9427 337.008 23.804C335.995 24.6147 334.5 25.02 332.524 25.02ZM365.704 71.988C361.802 71.988 358.357 71.2027 355.368 69.632C352.378 68.0107 350.022 65.6547 348.3 62.564C346.628 59.4227 345.792 55.572 345.792 51.012C345.792 46.3507 346.653 42.5 348.376 39.46C350.149 36.3693 352.53 34.064 355.52 32.544C358.509 31.024 361.878 30.264 365.628 30.264C369.529 30.264 372.974 31.0493 375.964 32.62C378.953 34.1907 381.309 36.5467 383.032 39.688C384.754 42.7787 385.616 46.6293 385.616 51.24C385.616 55.9013 384.754 59.7773 383.032 62.868C381.309 65.9587 378.928 68.264 375.888 69.784C372.898 71.2533 369.504 71.988 365.704 71.988ZM366.084 64.692C368.212 64.692 370.01 64.2107 371.48 63.248C372.949 62.2347 374.064 60.74 374.824 58.764C375.634 56.788 376.04 54.432 376.04 51.696C376.04 48.808 375.609 46.3507 374.748 44.324C373.937 42.2467 372.746 40.6507 371.176 39.536C369.656 38.4213 367.73 37.864 365.4 37.864C363.373 37.864 361.6 38.3707 360.08 39.384C358.56 40.3467 357.394 41.7907 356.584 43.716C355.824 45.6413 355.444 48.0227 355.444 50.86C355.444 55.3187 356.381 58.7387 358.256 61.12C360.181 63.5013 362.79 64.692 366.084 64.692ZM394.236 71V46.756V31.252H402.216L401.988 43.412H403.356C404.065 40.4227 405.003 37.9653 406.168 36.04C407.384 34.1147 408.929 32.6707 410.804 31.708C412.679 30.7453 414.857 30.264 417.34 30.264C421.849 30.264 425.269 31.86 427.6 35.052C429.981 38.244 431.172 43.184 431.172 49.872V71H421.52V50.86C421.52 46.5533 420.861 43.412 419.544 41.436C418.277 39.4093 416.377 38.396 413.844 38.396C411.716 38.396 409.917 39.08 408.448 40.448C406.979 41.7653 405.839 43.5387 405.028 45.768C404.268 47.9467 403.863 50.3533 403.812 52.988V71H394.236ZM450.487 71.988C448.308 71.988 446.357 71.5827 444.635 70.772C442.912 69.9107 441.544 68.644 440.531 66.972C439.568 65.3 439.087 63.2227 439.087 60.74C439.087 58.6627 439.467 56.8893 440.227 55.42C441.037 53.9507 442.228 52.76 443.799 51.848C445.369 50.8853 447.32 50.1 449.651 49.492C451.981 48.8333 454.717 48.276 457.859 47.82C459.581 47.5667 460.975 47.3133 462.039 47.06C463.153 46.8067 463.964 46.4267 464.471 45.92C464.977 45.3627 465.231 44.552 465.231 43.488C465.231 41.9173 464.673 40.5747 463.559 39.46C462.495 38.2947 460.747 37.712 458.315 37.712C456.845 37.712 455.427 37.9653 454.059 38.472C452.741 38.9787 451.601 39.7893 450.639 40.904C449.676 41.968 449.017 43.3867 448.663 45.16L440.075 42.5C440.632 40.4733 441.443 38.7253 442.507 37.256C443.571 35.736 444.888 34.444 446.459 33.38C448.029 32.316 449.828 31.5307 451.855 31.024C453.881 30.5173 456.111 30.264 458.543 30.264C462.241 30.264 465.281 30.872 467.663 32.088C470.044 33.2533 471.817 35.1027 472.983 37.636C474.148 40.1187 474.731 43.336 474.731 47.288V54.736C474.731 56.4587 474.756 58.2573 474.807 60.132C474.908 61.956 475.009 63.8053 475.111 65.68C475.263 67.504 475.44 69.2773 475.643 71H467.055C466.852 69.5813 466.675 68.0613 466.523 66.44C466.371 64.8187 466.244 63.172 466.143 61.5H464.927C464.217 63.4253 463.204 65.1987 461.887 66.82C460.569 68.3907 458.948 69.6573 457.023 70.62C455.148 71.532 452.969 71.988 450.487 71.988ZM454.287 64.92C455.3 64.92 456.313 64.7427 457.327 64.388C458.391 64.0333 459.429 63.5013 460.443 62.792C461.456 62.0827 462.393 61.2213 463.255 60.208C464.116 59.144 464.851 57.9027 465.459 56.484L465.307 49.72L467.131 50.024C466.269 50.7333 465.205 51.2907 463.939 51.696C462.672 52.1013 461.329 52.4053 459.911 52.608C458.543 52.8107 457.149 53.064 455.731 53.368C454.363 53.6213 453.121 53.976 452.007 54.432C450.892 54.8373 450.005 55.4453 449.347 56.256C448.688 57.016 448.359 58.08 448.359 59.448C448.359 61.1707 448.916 62.5133 450.031 63.476C451.145 64.4387 452.564 64.92 454.287 64.92ZM498.988 71.912C494.782 71.912 491.692 70.7973 489.716 68.568C487.74 66.288 486.752 62.7667 486.752 58.004V38.928H480.9L481.052 31.328H484.928C486.397 31.328 487.486 31.1 488.196 30.644C488.905 30.188 489.336 29.3773 489.488 28.212L490.4 22.436H495.948V31.252H506.436V39.232H495.948V57.624C495.948 59.4987 496.378 60.8667 497.24 61.728C498.152 62.5893 499.494 63.02 501.268 63.02C502.23 63.02 503.168 62.9187 504.08 62.716C505.042 62.4627 505.929 62.0573 506.74 61.5V70.62C505.169 71.1267 503.725 71.456 502.408 71.608C501.141 71.8107 500.001 71.912 498.988 71.912ZM532.258 71.988C529.066 71.988 526.203 71.532 523.67 70.62C521.187 69.708 519.084 68.3907 517.362 66.668C515.639 64.8947 514.322 62.7667 513.41 60.284C512.498 57.8013 512.042 54.9893 512.042 51.848C512.042 48.7067 512.472 45.8187 513.334 43.184C514.246 40.5493 515.538 38.2693 517.21 36.344C518.882 34.4187 520.908 32.924 523.29 31.86C525.722 30.796 528.483 30.264 531.574 30.264C534.462 30.264 537.046 30.7453 539.326 31.708C541.606 32.6707 543.531 34.1147 545.102 36.04C546.672 37.9147 547.838 40.2707 548.598 43.108C549.358 45.8947 549.611 49.1373 549.358 52.836L518.274 53.064V47.516L543.81 47.288L540.466 50.404C540.77 47.516 540.542 45.16 539.782 43.336C539.022 41.4613 537.932 40.0933 536.514 39.232C535.095 38.32 533.474 37.864 531.65 37.864C529.572 37.864 527.748 38.4213 526.178 39.536C524.607 40.6 523.391 42.1707 522.53 44.248C521.719 46.2747 521.314 48.7573 521.314 51.696C521.314 56.104 522.276 59.3973 524.202 61.576C526.178 63.7547 528.863 64.844 532.258 64.844C533.778 64.844 535.044 64.6667 536.058 64.312C537.122 63.9067 538.008 63.4 538.718 62.792C539.427 62.1333 539.984 61.3987 540.39 60.588C540.846 59.7773 541.2 58.916 541.454 58.004L549.814 59.904C549.408 61.7787 548.75 63.4507 547.838 64.92C546.926 66.3893 545.735 67.656 544.266 68.72C542.847 69.784 541.15 70.5947 539.174 71.152C537.198 71.7093 534.892 71.988 532.258 71.988Z" fill="#FEFCE1"/>
<path fill-rule="evenodd" clip-rule="evenodd" d="M43 88L0 88C0 82.3532 1.11223 76.7616 3.27318 71.5446C5.43413 66.3276 8.60149 61.5873 12.5944 57.5944C16.5873 53.6015 21.3276 50.4341 26.5446 48.2732C31.7562 46.1145 37.3416 45.0023 42.9825 45C37.3416 44.9977 31.7562 43.8855 26.5446 41.7268C21.3276 39.5659 16.5873 36.3985 12.5944 32.4056C8.60149 28.4127 5.43413 23.6724 3.27318 18.4554C1.11223 13.2384 0 7.64684 0 2L43 2C66.7423 2 85.9903 21.2421 86 44.9821V45V45.0179C85.9903 68.7579 66.7423 88 43 88ZM43 2C43 7.64684 44.1122 13.2384 46.2732 18.4554C48.4341 23.6724 51.6015 28.4127 55.5944 32.4056C59.5873 36.3985 64.3276 39.5659 69.5446 41.7268C74.7616 43.8878 80.3532 45 86 45C80.3532 45 74.7616 46.1122 69.5446 48.2732C64.3276 50.4341 59.5873 53.6015 55.5944 57.5944C51.6015 61.5873 48.4341 66.3276 46.2732 71.5446C44.1122 76.7616 43 82.3532 43 88V2Z" fill="#FEFCE1"/>
</svg>
