<svg width="567" height="96" viewBox="0 0 567 96" fill="none" xmlns="http://www.w3.org/2000/svg">
<path d="M174.236 58.408V50.732H186.016C190.069 50.732 193.084 49.9467 195.06 48.376C197.087 46.7547 198.1 44.0947 198.1 40.396C198.1 37.1027 197.163 34.62 195.288 32.948C193.413 31.276 190.525 30.44 186.624 30.44H174.236V22.84H186.852C190.095 22.84 193.008 23.22 195.592 23.98C198.176 24.74 200.38 25.8547 202.204 27.324C204.028 28.7933 205.421 30.668 206.384 32.948C207.347 35.1773 207.828 37.7613 207.828 40.7C207.828 44.5507 206.941 47.7933 205.168 50.428C203.445 53.0627 200.861 55.064 197.416 56.432C194.021 57.7493 189.791 58.408 184.724 58.408H174.236ZM167.928 73V22.84H177.504V73H167.928ZM224.537 73.988C222.359 73.988 220.408 73.5827 218.685 72.772C216.963 71.9107 215.595 70.644 214.581 68.972C213.619 67.3 213.137 65.2227 213.137 62.74C213.137 60.6627 213.517 58.8893 214.277 57.42C215.088 55.9507 216.279 54.76 217.849 53.848C219.42 52.8853 221.371 52.1 223.701 51.492C226.032 50.8333 228.768 50.276 231.909 49.82C233.632 49.5667 235.025 49.3133 236.089 49.06C237.204 48.8067 238.015 48.4267 238.521 47.92C239.028 47.3627 239.281 46.552 239.281 45.488C239.281 43.9173 238.724 42.5747 237.609 41.46C236.545 40.2947 234.797 39.712 232.365 39.712C230.896 39.712 229.477 39.9653 228.109 40.472C226.792 40.9787 225.652 41.7893 224.689 42.904C223.727 43.968 223.068 45.3867 222.713 47.16L214.125 44.5C214.683 42.4733 215.493 40.7253 216.557 39.256C217.621 37.736 218.939 36.444 220.509 35.38C222.08 34.316 223.879 33.5307 225.905 33.024C227.932 32.5173 230.161 32.264 232.593 32.264C236.292 32.264 239.332 32.872 241.713 34.088C244.095 35.2533 245.868 37.1027 247.033 39.636C248.199 42.1187 248.781 45.336 248.781 49.288V56.736C248.781 58.4587 248.807 60.2573 248.857 62.132C248.959 63.956 249.06 65.8053 249.161 67.68C249.313 69.504 249.491 71.2773 249.693 73H241.105C240.903 71.5813 240.725 70.0613 240.573 68.44C240.421 66.8187 240.295 65.172 240.193 63.5H238.977C238.268 65.4253 237.255 67.1987 235.937 68.82C234.62 70.3907 232.999 71.6573 231.073 72.62C229.199 73.532 227.02 73.988 224.537 73.988ZM228.337 66.92C229.351 66.92 230.364 66.7427 231.377 66.388C232.441 66.0333 233.48 65.5013 234.493 64.792C235.507 64.0827 236.444 63.2213 237.305 62.208C238.167 61.144 238.901 59.9027 239.509 58.484L239.357 51.72L241.181 52.024C240.32 52.7333 239.256 53.2907 237.989 53.696C236.723 54.1013 235.38 54.4053 233.961 54.608C232.593 54.8107 231.2 55.064 229.781 55.368C228.413 55.6213 227.172 55.976 226.057 56.432C224.943 56.8373 224.056 57.4453 223.397 58.256C222.739 59.016 222.409 60.08 222.409 61.448C222.409 63.1707 222.967 64.5133 224.081 65.476C225.196 66.4387 226.615 66.92 228.337 66.92ZM274.484 73.988C271.799 73.988 269.367 73.7093 267.188 73.152C265.06 72.6453 263.236 71.9107 261.716 70.948C260.196 69.9347 258.98 68.744 258.068 67.376C257.156 65.9573 256.599 64.3867 256.396 62.664L263.92 59.852C264.021 61.1693 264.528 62.36 265.44 63.424C266.352 64.4373 267.619 65.248 269.24 65.856C270.861 66.464 272.812 66.768 275.092 66.768C277.625 66.768 279.576 66.388 280.944 65.628C282.363 64.8173 283.072 63.6773 283.072 62.208C283.072 61.144 282.692 60.308 281.932 59.7C281.172 59.0413 280.057 58.5093 278.588 58.104C277.169 57.648 275.447 57.2173 273.42 56.812C271.545 56.4067 269.645 55.9507 267.72 55.444C265.845 54.8867 264.097 54.1773 262.476 53.316C260.905 52.404 259.613 51.2387 258.6 49.82C257.637 48.3507 257.156 46.5013 257.156 44.272C257.156 41.84 257.789 39.7373 259.056 37.964C260.373 36.1907 262.248 34.7973 264.68 33.784C267.163 32.7707 270.152 32.264 273.648 32.264C276.941 32.264 279.779 32.72 282.16 33.632C284.592 34.544 286.568 35.8613 288.088 37.584C289.608 39.256 290.571 41.2573 290.976 43.588L283.072 46.096C282.92 44.6773 282.439 43.4867 281.628 42.524C280.817 41.5107 279.728 40.7507 278.36 40.244C276.992 39.7373 275.396 39.484 273.572 39.484C271.241 39.484 269.417 39.8893 268.1 40.7C266.783 41.5107 266.124 42.6 266.124 43.968C266.124 45.0827 266.529 45.9693 267.34 46.628C268.201 47.2867 269.367 47.8187 270.836 48.224C272.356 48.6293 274.079 49.0347 276.004 49.44C278.031 49.8453 279.981 50.3267 281.856 50.884C283.781 51.3907 285.504 52.0747 287.024 52.936C288.544 53.7973 289.76 54.9373 290.672 56.356C291.584 57.724 292.04 59.4973 292.04 61.676C292.04 64.3107 291.331 66.5653 289.912 68.44C288.493 70.264 286.467 71.6573 283.832 72.62C281.248 73.532 278.132 73.988 274.484 73.988ZM316.121 73.988C313.436 73.988 311.004 73.7093 308.825 73.152C306.697 72.6453 304.873 71.9107 303.353 70.948C301.833 69.9347 300.617 68.744 299.705 67.376C298.793 65.9573 298.236 64.3867 298.033 62.664L305.557 59.852C305.658 61.1693 306.165 62.36 307.077 63.424C307.989 64.4373 309.256 65.248 310.877 65.856C312.498 66.464 314.449 66.768 316.729 66.768C319.262 66.768 321.213 66.388 322.581 65.628C324 64.8173 324.709 63.6773 324.709 62.208C324.709 61.144 324.329 60.308 323.569 59.7C322.809 59.0413 321.694 58.5093 320.225 58.104C318.806 57.648 317.084 57.2173 315.057 56.812C313.182 56.4067 311.282 55.9507 309.357 55.444C307.482 54.8867 305.734 54.1773 304.113 53.316C302.542 52.404 301.25 51.2387 300.237 49.82C299.274 48.3507 298.793 46.5013 298.793 44.272C298.793 41.84 299.426 39.7373 300.693 37.964C302.01 36.1907 303.885 34.7973 306.317 33.784C308.8 32.7707 311.789 32.264 315.285 32.264C318.578 32.264 321.416 32.72 323.797 33.632C326.229 34.544 328.205 35.8613 329.725 37.584C331.245 39.256 332.208 41.2573 332.613 43.588L324.709 46.096C324.557 44.6773 324.076 43.4867 323.265 42.524C322.454 41.5107 321.365 40.7507 319.997 40.244C318.629 39.7373 317.033 39.484 315.209 39.484C312.878 39.484 311.054 39.8893 309.737 40.7C308.42 41.5107 307.761 42.6 307.761 43.968C307.761 45.0827 308.166 45.9693 308.977 46.628C309.838 47.2867 311.004 47.8187 312.473 48.224C313.993 48.6293 315.716 49.0347 317.641 49.44C319.668 49.8453 321.618 50.3267 323.493 50.884C325.418 51.3907 327.141 52.0747 328.661 52.936C330.181 53.7973 331.397 54.9373 332.309 56.356C333.221 57.724 333.677 59.4973 333.677 61.676C333.677 64.3107 332.968 66.5653 331.549 68.44C330.13 70.264 328.104 71.6573 325.469 72.62C322.885 73.532 319.769 73.988 316.121 73.988ZM341.736 73V33.252H351.312V73H341.736ZM346.524 27.02C344.599 27.02 343.104 26.6147 342.04 25.804C341.027 24.9427 340.52 23.7267 340.52 22.156C340.52 20.5853 341.027 19.3947 342.04 18.584C343.104 17.7227 344.599 17.292 346.524 17.292C348.551 17.292 350.071 17.6973 351.084 18.508C352.097 19.3187 352.604 20.5347 352.604 22.156C352.604 23.7267 352.072 24.9427 351.008 25.804C349.995 26.6147 348.5 27.02 346.524 27.02ZM379.704 73.988C375.802 73.988 372.357 73.2027 369.368 71.632C366.378 70.0107 364.022 67.6547 362.3 64.564C360.628 61.4227 359.792 57.572 359.792 53.012C359.792 48.3507 360.653 44.5 362.376 41.46C364.149 38.3693 366.53 36.064 369.52 34.544C372.509 33.024 375.878 32.264 379.628 32.264C383.529 32.264 386.974 33.0493 389.964 34.62C392.953 36.1907 395.309 38.5467 397.032 41.688C398.754 44.7787 399.616 48.6293 399.616 53.24C399.616 57.9013 398.754 61.7773 397.032 64.868C395.309 67.9587 392.928 70.264 389.888 71.784C386.898 73.2533 383.504 73.988 379.704 73.988ZM380.084 66.692C382.212 66.692 384.01 66.2107 385.48 65.248C386.949 64.2347 388.064 62.74 388.824 60.764C389.634 58.788 390.04 56.432 390.04 53.696C390.04 50.808 389.609 48.3507 388.748 46.324C387.937 44.2467 386.746 42.6507 385.176 41.536C383.656 40.4213 381.73 39.864 379.4 39.864C377.373 39.864 375.6 40.3707 374.08 41.384C372.56 42.3467 371.394 43.7907 370.584 45.716C369.824 47.6413 369.444 50.0227 369.444 52.86C369.444 57.3187 370.381 60.7387 372.256 63.12C374.181 65.5013 376.79 66.692 380.084 66.692ZM408.236 73V48.756V33.252H416.216L415.988 45.412H417.356C418.065 42.4227 419.003 39.9653 420.168 38.04C421.384 36.1147 422.929 34.6707 424.804 33.708C426.679 32.7453 428.857 32.264 431.34 32.264C435.849 32.264 439.269 33.86 441.6 37.052C443.981 40.244 445.172 45.184 445.172 51.872V73H435.52V52.86C435.52 48.5533 434.861 45.412 433.544 43.436C432.277 41.4093 430.377 40.396 427.844 40.396C425.716 40.396 423.917 41.08 422.448 42.448C420.979 43.7653 419.839 45.5387 419.028 47.768C418.268 49.9467 417.863 52.3533 417.812 54.988V73H408.236ZM464.487 73.988C462.308 73.988 460.357 73.5827 458.635 72.772C456.912 71.9107 455.544 70.644 454.531 68.972C453.568 67.3 453.087 65.2227 453.087 62.74C453.087 60.6627 453.467 58.8893 454.227 57.42C455.037 55.9507 456.228 54.76 457.799 53.848C459.369 52.8853 461.32 52.1 463.651 51.492C465.981 50.8333 468.717 50.276 471.859 49.82C473.581 49.5667 474.975 49.3133 476.039 49.06C477.153 48.8067 477.964 48.4267 478.471 47.92C478.977 47.3627 479.231 46.552 479.231 45.488C479.231 43.9173 478.673 42.5747 477.559 41.46C476.495 40.2947 474.747 39.712 472.315 39.712C470.845 39.712 469.427 39.9653 468.059 40.472C466.741 40.9787 465.601 41.7893 464.639 42.904C463.676 43.968 463.017 45.3867 462.663 47.16L454.075 44.5C454.632 42.4733 455.443 40.7253 456.507 39.256C457.571 37.736 458.888 36.444 460.459 35.38C462.029 34.316 463.828 33.5307 465.855 33.024C467.881 32.5173 470.111 32.264 472.543 32.264C476.241 32.264 479.281 32.872 481.663 34.088C484.044 35.2533 485.817 37.1027 486.983 39.636C488.148 42.1187 488.731 45.336 488.731 49.288V56.736C488.731 58.4587 488.756 60.2573 488.807 62.132C488.908 63.956 489.009 65.8053 489.111 67.68C489.263 69.504 489.44 71.2773 489.643 73H481.055C480.852 71.5813 480.675 70.0613 480.523 68.44C480.371 66.8187 480.244 65.172 480.143 63.5H478.927C478.217 65.4253 477.204 67.1987 475.887 68.82C474.569 70.3907 472.948 71.6573 471.023 72.62C469.148 73.532 466.969 73.988 464.487 73.988ZM468.287 66.92C469.3 66.92 470.313 66.7427 471.327 66.388C472.391 66.0333 473.429 65.5013 474.443 64.792C475.456 64.0827 476.393 63.2213 477.255 62.208C478.116 61.144 478.851 59.9027 479.459 58.484L479.307 51.72L481.131 52.024C480.269 52.7333 479.205 53.2907 477.939 53.696C476.672 54.1013 475.329 54.4053 473.911 54.608C472.543 54.8107 471.149 55.064 469.731 55.368C468.363 55.6213 467.121 55.976 466.007 56.432C464.892 56.8373 464.005 57.4453 463.347 58.256C462.688 59.016 462.359 60.08 462.359 61.448C462.359 63.1707 462.916 64.5133 464.031 65.476C465.145 66.4387 466.564 66.92 468.287 66.92ZM512.988 73.912C508.782 73.912 505.692 72.7973 503.716 70.568C501.74 68.288 500.752 64.7667 500.752 60.004V40.928H494.9L495.052 33.328H498.928C500.397 33.328 501.486 33.1 502.196 32.644C502.905 32.188 503.336 31.3773 503.488 30.212L504.4 24.436H509.948V33.252H520.436V41.232H509.948V59.624C509.948 61.4987 510.378 62.8667 511.24 63.728C512.152 64.5893 513.494 65.02 515.268 65.02C516.23 65.02 517.168 64.9187 518.08 64.716C519.042 64.4627 519.929 64.0573 520.74 63.5V72.62C519.169 73.1267 517.725 73.456 516.408 73.608C515.141 73.8107 514.001 73.912 512.988 73.912ZM546.258 73.988C543.066 73.988 540.203 73.532 537.67 72.62C535.187 71.708 533.084 70.3907 531.362 68.668C529.639 66.8947 528.322 64.7667 527.41 62.284C526.498 59.8013 526.042 56.9893 526.042 53.848C526.042 50.7067 526.472 47.8187 527.334 45.184C528.246 42.5493 529.538 40.2693 531.21 38.344C532.882 36.4187 534.908 34.924 537.29 33.86C539.722 32.796 542.483 32.264 545.574 32.264C548.462 32.264 551.046 32.7453 553.326 33.708C555.606 34.6707 557.531 36.1147 559.102 38.04C560.672 39.9147 561.838 42.2707 562.598 45.108C563.358 47.8947 563.611 51.1373 563.358 54.836L532.274 55.064V49.516L557.81 49.288L554.466 52.404C554.77 49.516 554.542 47.16 553.782 45.336C553.022 43.4613 551.932 42.0933 550.514 41.232C549.095 40.32 547.474 39.864 545.65 39.864C543.572 39.864 541.748 40.4213 540.178 41.536C538.607 42.6 537.391 44.1707 536.53 46.248C535.719 48.2747 535.314 50.7573 535.314 53.696C535.314 58.104 536.276 61.3973 538.202 63.576C540.178 65.7547 542.863 66.844 546.258 66.844C547.778 66.844 549.044 66.6667 550.058 66.312C551.122 65.9067 552.008 65.4 552.718 64.792C553.427 64.1333 553.984 63.3987 554.39 62.588C554.846 61.7773 555.2 60.916 555.454 60.004L563.814 61.904C563.408 63.7787 562.75 65.4507 561.838 66.92C560.926 68.3893 559.735 69.656 558.266 70.72C556.847 71.784 555.15 72.5947 553.174 73.152C551.198 73.7093 548.892 73.988 546.258 73.988Z" fill="#1D1D1D"/>
<path d="M33.6 48C41.5529 48 48 41.5529 48 33.6C48 41.5529 54.4471 48 62.4 48C54.4471 48 48 54.4471 48 62.4C48 54.4471 41.5529 48 33.6 48Z" fill="#1D1D1D"/>
<path fill-rule="evenodd" clip-rule="evenodd" d="M0 29.76C0 13.324 13.324 0 29.76 0H66.24C82.676 0 96 13.324 96 29.76V66.24C96 82.676 82.676 96 66.24 96H29.76C13.324 96 0 82.676 0 66.24V29.76ZM68.1493 27.4906C87.2694 46.6107 93.6517 71.2281 82.4046 82.4752C71.1575 93.7223 46.54 87.34 27.4199 68.2199C8.29988 49.0999 1.91758 24.4824 13.1647 13.2353C24.4118 1.98823 49.0292 8.37053 68.1493 27.4906Z" fill="#1D1D1D"/>
</svg>
