<svg width="172" height="30" viewBox="0 0 172 30" fill="none" xmlns="http://www.w3.org/2000/svg">
<path d="M22.3157 19.4162V14.2832C22.2117 14.2598 22.1075 14.2365 22.0035 14.2248C21.8763 14.2132 21.7491 14.2015 21.6218 14.2015C21.1708 14.2015 20.7198 14.2948 20.315 14.5048C19.9218 14.7031 19.5865 14.9948 19.332 15.3681C19.0776 15.7414 18.9504 16.2431 18.9504 16.8497C18.9388 17.258 19.0082 17.6663 19.147 18.0513C19.2626 18.3663 19.4361 18.6463 19.6674 18.8796C19.8871 19.0896 20.1531 19.2529 20.4538 19.3462C20.7661 19.4512 21.0899 19.4979 21.4137 19.4979C21.5871 19.4979 21.7491 19.4862 21.8994 19.4746C22.0497 19.4862 22.1769 19.4629 22.3157 19.4162Z" fill="#545454"/>
<path fill-rule="evenodd" clip-rule="evenodd" d="M24.895 0H5.35714C2.39496 0 0 2.4359 0 5.44872V24.5513C0 27.5641 2.39496 30 5.35714 30H24.895C27.8571 30 30.2521 27.5641 30.2521 24.5513V5.44872C30.2521 2.4359 27.8571 0 24.895 0ZM21.1824 21.7495C20.3266 21.7611 19.4708 21.5861 18.696 21.2245C17.9674 20.8862 17.366 20.3262 16.9497 19.6379C16.5218 18.9263 16.3136 18.0396 16.3136 16.978C16.3021 16.1147 16.5218 15.2631 16.9497 14.5165C17.3892 13.7582 18.0252 13.1282 18.7885 12.7083C19.598 12.2533 20.5695 12.0316 21.7144 12.0316C21.7722 12.0316 21.8531 12.0316 21.9572 12.0433C22.0131 12.0496 22.0724 12.0525 22.1368 12.0556C22.1922 12.0583 22.2515 12.0612 22.3157 12.0666V8.38014C22.3157 8.29848 22.3504 8.25181 22.4314 8.25181H24.779C24.8368 8.24015 24.8831 8.28681 24.8947 8.33348V19.4629C24.8947 19.6537 24.9042 19.8637 24.9146 20.093L24.9178 20.1629C24.9373 20.3701 24.9486 20.569 24.9587 20.7454L24.9611 20.7881C24.9621 20.8055 24.9631 20.8226 24.964 20.8395C24.964 20.9212 24.9293 20.9912 24.8484 21.0262C24.247 21.2828 23.611 21.4695 22.9633 21.5861C22.3735 21.6911 21.7837 21.7495 21.1824 21.7495ZM15.8396 9.4418L12.3702 15.2165L16.0709 21.3412C16.094 21.3878 16.1056 21.4345 16.094 21.4812C16.0869 21.5098 16.0667 21.5077 16.0362 21.5045C16.0169 21.5025 15.9936 21.5 15.9668 21.5045H13.3185C13.1334 21.5045 13.0062 21.4928 12.9253 21.3762C12.8038 21.1312 12.6795 20.8891 12.5552 20.6471C12.4309 20.405 12.3066 20.1629 12.1851 19.9179C11.9423 19.4396 11.6763 18.9496 11.3987 18.448C11.1212 17.9464 10.8436 17.4447 10.5661 16.9314H10.5429C10.3001 17.433 10.0341 17.9347 9.76812 18.4363L9.76802 18.4365L9.76785 18.4368C9.50195 18.9383 9.23605 19.4398 8.9817 19.9296C8.89316 20.0927 8.80462 20.2571 8.71607 20.4215L8.71571 20.4222C8.53838 20.7514 8.36106 21.0806 8.18374 21.3995C8.13748 21.5162 8.04496 21.5278 7.91775 21.5278H5.37351C5.36224 21.5278 5.35166 21.5292 5.34209 21.5305C5.31241 21.5344 5.29256 21.537 5.29256 21.4928C5.281 21.4462 5.29256 21.3995 5.31569 21.3645L8.91232 15.4148L5.40821 9.43013C5.37351 9.38347 5.36195 9.3368 5.38508 9.31347C5.40821 9.27847 5.45447 9.26681 5.50073 9.26681H8.12591C8.18374 9.26681 8.24156 9.27847 8.28782 9.29014C8.33408 9.31347 8.36877 9.34847 8.40347 9.39513C8.6232 9.89677 8.87762 10.3984 9.14361 10.9001C9.19392 10.991 9.24385 11.0815 9.2936 11.1717L9.29387 11.1722C9.51852 11.5796 9.73966 11.9807 9.97627 12.3816C10.2538 12.8716 10.5082 13.3616 10.7511 13.8632H10.7742C11.0171 13.3499 11.2715 12.8483 11.5259 12.3583C11.7803 11.8684 12.0463 11.3784 12.3123 10.8885L12.3123 10.8884C12.4698 10.5984 12.6231 10.3044 12.7748 10.0135L12.7749 10.0133C12.8795 9.81276 12.9834 9.61363 13.0872 9.41846C13.0987 9.3718 13.1219 9.32514 13.1566 9.3018C13.2028 9.27847 13.2491 9.26681 13.3069 9.27847H15.7471C15.8049 9.26681 15.8627 9.3018 15.8743 9.36013C15.8858 9.3718 15.8627 9.41846 15.8396 9.4418Z" fill="#545454"/>
<path d="M55.2189 6.18403H58.7395L66.0189 25.084H62.4718L60.6983 20.0811H53.1542L51.3807 25.084H47.966L55.2189 6.18403ZM54.0542 17.5664H59.8248L56.9924 9.43992H56.913L54.0542 17.5664Z" fill="#545454"/>
<path d="M80.2863 25.084H77.4275V23.2311H77.3746C76.9687 24.0252 76.3775 24.5987 75.6011 24.9517C74.8246 25.287 74.004 25.4546 73.1393 25.4546C72.0628 25.4546 71.1187 25.2693 70.3069 24.8987C69.5128 24.5105 68.8511 23.9899 68.3216 23.337C67.7922 22.684 67.3952 21.9164 67.1305 21.034C66.8658 20.134 66.7334 19.1723 66.7334 18.1487C66.7334 16.9134 66.9011 15.8458 67.2363 14.9458C67.5716 14.0458 68.0128 13.3046 68.5599 12.7223C69.1246 12.1399 69.7599 11.7164 70.4658 11.4517C71.1893 11.1693 71.9216 11.0282 72.6628 11.0282C73.0863 11.0282 73.5187 11.0723 73.9599 11.1605C74.401 11.2311 74.8246 11.3546 75.2305 11.5311C75.6363 11.7076 76.0069 11.937 76.3422 12.2193C76.6952 12.484 76.9863 12.8017 77.2158 13.1723H77.2687V6.18403H80.2863V25.084ZM69.751 18.387C69.751 18.9693 69.8216 19.5429 69.9628 20.1076C70.1216 20.6723 70.351 21.1752 70.651 21.6164C70.9687 22.0576 71.3658 22.4105 71.8422 22.6752C72.3187 22.9399 72.8834 23.0723 73.5363 23.0723C74.2069 23.0723 74.7805 22.9311 75.2569 22.6487C75.7511 22.3664 76.1481 21.9958 76.4481 21.537C76.7658 21.0782 76.9952 20.5664 77.1363 20.0017C77.2952 19.4193 77.3746 18.8282 77.3746 18.2282C77.3746 16.7105 77.0305 15.5282 76.3422 14.6811C75.6716 13.834 74.754 13.4105 73.5893 13.4105C72.8834 13.4105 72.2834 13.5605 71.7893 13.8605C71.3128 14.1429 70.9158 14.5223 70.5981 14.9987C70.2981 15.4576 70.0775 15.987 69.9363 16.587C69.8128 17.1693 69.751 17.7693 69.751 18.387Z" fill="#545454"/>
<path d="M89.8509 25.4546C88.7568 25.4546 87.7774 25.2782 86.9127 24.9252C86.0656 24.5546 85.3421 24.0517 84.7421 23.4164C84.1597 22.7811 83.7097 22.0223 83.3921 21.1399C83.0921 20.2576 82.9421 19.287 82.9421 18.2282C82.9421 17.187 83.0921 16.2252 83.3921 15.3429C83.7097 14.4605 84.1597 13.7017 84.7421 13.0664C85.3421 12.4311 86.0656 11.937 86.9127 11.584C87.7774 11.2134 88.7568 11.0282 89.8509 11.0282C90.945 11.0282 91.9156 11.2134 92.7627 11.584C93.6274 11.937 94.3509 12.4311 94.9333 13.0664C95.5333 13.7017 95.9833 14.4605 96.2833 15.3429C96.6009 16.2252 96.7597 17.187 96.7597 18.2282C96.7597 19.287 96.6009 20.2576 96.2833 21.1399C95.9833 22.0223 95.5333 22.7811 94.9333 23.4164C94.3509 24.0517 93.6274 24.5546 92.7627 24.9252C91.9156 25.2782 90.945 25.4546 89.8509 25.4546ZM89.8509 23.0723C90.5215 23.0723 91.1038 22.9311 91.598 22.6487C92.0921 22.3664 92.498 21.9958 92.8156 21.537C93.1333 21.0782 93.3627 20.5664 93.5039 20.0017C93.6627 19.4193 93.7421 18.8282 93.7421 18.2282C93.7421 17.6458 93.6627 17.0634 93.5039 16.4811C93.3627 15.8987 93.1333 15.387 92.8156 14.9458C92.498 14.487 92.0921 14.1164 91.598 13.834C91.1038 13.5517 90.5215 13.4105 89.8509 13.4105C89.1803 13.4105 88.598 13.5517 88.1039 13.834C87.6097 14.1164 87.2038 14.487 86.8862 14.9458C86.5686 15.387 86.3303 15.8987 86.1715 16.4811C86.0303 17.0634 85.9597 17.6458 85.9597 18.2282C85.9597 18.8282 86.0303 19.4193 86.1715 20.0017C86.3303 20.5664 86.5686 21.0782 86.8862 21.537C87.2038 21.9958 87.6097 22.3664 88.1039 22.6487C88.598 22.9311 89.1803 23.0723 89.8509 23.0723Z" fill="#545454"/>
<path d="M99.3479 6.18403H102.365V13.1723H102.418C102.63 12.837 102.886 12.537 103.186 12.2723C103.486 12.0076 103.813 11.787 104.166 11.6105C104.536 11.4164 104.915 11.2752 105.304 11.187C105.71 11.0811 106.107 11.0282 106.495 11.0282C107.571 11.0282 108.507 11.2223 109.301 11.6105C110.113 11.9811 110.783 12.5017 111.313 13.1723C111.842 13.8252 112.239 14.5929 112.504 15.4752C112.768 16.3576 112.901 17.3017 112.901 18.3076C112.901 19.2252 112.777 20.1164 112.53 20.9811C112.301 21.8458 111.939 22.6134 111.445 23.284C110.968 23.937 110.36 24.4664 109.618 24.8723C108.877 25.2605 108.004 25.4546 106.998 25.4546C106.539 25.4546 106.071 25.4193 105.595 25.3487C105.136 25.2958 104.695 25.1811 104.271 25.0046C103.848 24.8282 103.46 24.5987 103.107 24.3164C102.771 24.034 102.489 23.6634 102.26 23.2046H102.207V25.084H99.3479V6.18403ZM109.883 18.2546C109.883 17.637 109.804 17.037 109.645 16.4546C109.486 15.8723 109.248 15.3605 108.93 14.9193C108.613 14.4605 108.215 14.0987 107.739 13.834C107.263 13.5517 106.716 13.4105 106.098 13.4105C104.827 13.4105 103.866 13.8517 103.213 14.734C102.577 15.6164 102.26 16.7899 102.26 18.2546C102.26 18.9429 102.339 19.587 102.498 20.187C102.674 20.7693 102.93 21.2723 103.266 21.6958C103.601 22.1193 103.998 22.4546 104.457 22.7017C104.933 22.9487 105.48 23.0723 106.098 23.0723C106.786 23.0723 107.368 22.9311 107.845 22.6487C108.321 22.3664 108.71 22.0046 109.01 21.5634C109.327 21.1046 109.548 20.5929 109.671 20.0282C109.813 19.4458 109.883 18.8546 109.883 18.2546Z" fill="#545454"/>
<path d="M124.848 17.037C124.812 16.5605 124.707 16.1017 124.53 15.6605C124.371 15.2193 124.142 14.8399 123.842 14.5223C123.559 14.187 123.207 13.9223 122.783 13.7282C122.377 13.5164 121.918 13.4105 121.407 13.4105C120.877 13.4105 120.392 13.5076 119.951 13.7017C119.527 13.8782 119.157 14.134 118.839 14.4693C118.539 14.787 118.292 15.1664 118.098 15.6076C117.921 16.0487 117.824 16.5252 117.807 17.037H124.848ZM117.807 19.0223C117.807 19.5517 117.877 20.0634 118.018 20.5576C118.177 21.0517 118.407 21.484 118.707 21.8546C119.007 22.2252 119.386 22.5252 119.845 22.7546C120.304 22.9664 120.851 23.0723 121.486 23.0723C122.368 23.0723 123.074 22.887 123.604 22.5164C124.151 22.1282 124.557 21.5546 124.821 20.7958H127.68C127.521 21.537 127.248 22.1987 126.859 22.7811C126.471 23.3634 126.004 23.8576 125.457 24.2634C124.909 24.6517 124.292 24.9429 123.604 25.137C122.933 25.3487 122.227 25.4546 121.486 25.4546C120.409 25.4546 119.457 25.2782 118.627 24.9252C117.798 24.5723 117.092 24.0782 116.509 23.4429C115.945 22.8076 115.512 22.0487 115.212 21.1664C114.93 20.284 114.789 19.3134 114.789 18.2546C114.789 17.284 114.939 16.3664 115.239 15.5017C115.557 14.6193 115.998 13.8517 116.562 13.1987C117.145 12.5282 117.842 11.9987 118.654 11.6105C119.465 11.2223 120.383 11.0282 121.407 11.0282C122.483 11.0282 123.445 11.2576 124.292 11.7164C125.157 12.1576 125.871 12.7487 126.436 13.4899C127.001 14.2311 127.407 15.087 127.654 16.0576C127.918 17.0105 127.989 17.9987 127.865 19.0223H117.807Z" fill="#545454"/>
<path d="M136.309 6.18403H140.253L144.541 12.8546L149.015 6.18403H152.721L146.474 15.2899L153.171 25.084H149.147L144.436 17.8576L139.644 25.084H135.859L142.556 15.2899L136.309 6.18403Z" fill="#545454"/>
<path d="M155.115 6.18403H162.95C164.397 6.18403 165.65 6.43109 166.709 6.92521C167.768 7.41933 168.632 8.09874 169.303 8.96345C169.974 9.8105 170.468 10.8076 170.785 11.9546C171.121 13.1017 171.288 14.3282 171.288 15.634C171.288 16.9399 171.121 18.1664 170.785 19.3134C170.468 20.4605 169.974 21.4664 169.303 22.3311C168.632 23.1782 167.768 23.8487 166.709 24.3429C165.65 24.837 164.397 25.084 162.95 25.084H155.115V6.18403ZM158.424 22.384H161.679C162.968 22.384 164.018 22.2164 164.829 21.8811C165.659 21.5282 166.303 21.0517 166.762 20.4517C167.238 19.834 167.556 19.1193 167.715 18.3076C167.891 17.4782 167.979 16.587 167.979 15.634C167.979 14.6811 167.891 13.7987 167.715 12.987C167.556 12.1576 167.238 11.4429 166.762 10.8429C166.303 10.2252 165.659 9.74874 164.829 9.41345C164.018 9.0605 162.968 8.88403 161.679 8.88403H158.424V22.384Z" fill="#545454"/>
</svg>
