<svg width="132" height="34" viewBox="0 0 132 34" fill="none" xmlns="http://www.w3.org/2000/svg">
<path fill-rule="evenodd" clip-rule="evenodd" d="M42 26.9828V2H55.2997V5.14734H45.2086V11.9564H52.9606V15.1037H45.2086V26.995L42 26.9828ZM63.1864 4.97589C63.1864 6.12706 62.2557 7.07004 61.0922 7.07004C59.9411 7.07004 58.9981 6.12706 58.9981 4.97589C58.9981 3.82472 59.9288 2.88175 61.0922 2.88175C62.2434 2.88175 63.1864 3.82472 63.1864 4.97589ZM59.4635 26.9828V10.2174H62.672V26.9828H59.4635ZM67.3371 17.6266C67.3371 13.3404 70.3129 9.72768 74.587 9.72768C76.5464 9.72768 78.1507 10.487 79.3263 11.7116V10.2175H82.5227V25.7583C82.5227 30.314 78.8365 34.0002 74.2808 34.0002C72.6398 34.0002 71.109 33.5226 69.8231 32.6898L71.4396 29.8976C72.2479 30.4609 73.2643 30.8528 74.293 30.8528C77.1465 30.8528 79.3263 28.5382 79.3263 25.7583V23.5417C78.1507 24.7663 76.5464 25.5256 74.587 25.5256C70.3129 25.5256 67.3371 21.9129 67.3371 17.6266ZM74.9421 12.875C72.5908 12.875 70.5579 14.9692 70.5579 17.6266C70.5579 20.2841 72.5908 22.3783 74.9421 22.3783C77.2934 22.3783 79.3263 20.2841 79.3263 17.6266C79.3263 14.9692 77.2934 12.875 74.9421 12.875ZM94.1208 12.875C92.2226 12.875 90.6796 14.4916 90.6796 16.3898V26.9829H87.471V10.2175H90.6796V11.7483C91.6225 10.5359 93.0064 9.72768 94.8189 9.72768C97.0722 9.72768 98.799 10.8421 99.8032 12.5566C100.918 10.9033 102.73 9.72768 104.922 9.72768C108.584 9.72768 110.862 12.6791 110.874 16.3285V26.9829H107.665V16.3775C107.665 14.4793 106.122 12.8628 104.224 12.8628C102.326 12.8628 100.783 14.4793 100.783 16.3775V26.9829H97.5743V16.3775C97.5621 14.4793 96.019 12.875 94.1208 12.875ZM122.337 9.72768C124.602 9.72768 126.562 10.6339 127.995 12.1157V10.2175H131.203V26.9829H127.995V25.097C126.562 26.5666 124.602 27.4851 122.337 27.4851C117.549 27.4851 114.156 23.4315 114.156 18.6064C114.156 13.7813 117.561 9.72768 122.337 9.72768ZM122.692 12.875C119.826 12.875 117.377 15.41 117.377 18.6064C117.377 21.8027 119.826 24.3255 122.692 24.3377C125.558 24.3377 128.007 21.8027 128.007 18.6064C128.007 15.3978 125.545 12.875 122.692 12.875Z" fill="#545454"/>
<path d="M10.6582 16.0062C10.6582 13.0664 13.0416 10.6709 15.9936 10.6709C18.9334 10.6709 21.3289 13.0543 21.3289 16.0062C21.3289 18.9461 18.9455 21.3416 15.9936 21.3416C13.0537 21.3416 10.6582 18.9461 10.6582 16.0062Z" fill="#545454"/>
<path d="M0 26.6645C0 23.7246 2.38336 21.3291 5.33535 21.3291H10.6707V26.6645C10.6707 29.6043 8.28733 31.9998 5.33535 31.9998C2.38336 31.9998 0 29.6164 0 26.6645Z" fill="#545454"/>
<path d="M10.6582 0.0120983V10.6707H15.9936C18.9334 10.6707 21.3289 8.28733 21.3289 5.33535C21.3289 2.39546 18.9455 0 15.9936 0H10.6582V0.0120983Z" fill="#545454"/>
<path d="M0 5.34756C0 8.28744 2.38336 10.6829 5.33535 10.6829H10.6707V0.012207H5.33535C2.38336 0.012207 0 2.39557 0 5.34756Z" fill="#3F3F3F"/>
<path d="M0 16.0062C0 18.9461 2.38336 21.3416 5.33535 21.3416H10.6707V10.6709H5.33535C2.38336 10.6709 0 13.0664 0 16.0062Z" fill="#484848"/>
</svg>
