<svg width="119" height="30" viewBox="0 0 119 30" fill="none" xmlns="http://www.w3.org/2000/svg">
<path fill-rule="evenodd" clip-rule="evenodd" d="M23.5 0H6.5C2.9375 0 0 2.9375 0 6.5V23.5C0 27.0625 2.9375 30 6.5 30H23.5C27.0625 30 30 27.0625 30 23.5V6.5C30 2.9375 27.0625 0 23.5 0ZM17.3117 5.625H20.0721L25.1242 8.75L20.1242 24.375H17.3637L19.6554 10.1042L14.6033 24.375H11.8429L14.395 10.9896L9.13458 24.375H6.37416L9.13458 11.875L6.37416 5.625H9.13458L14.3429 10.5208L11.8429 5.625H14.6033L19.6033 9.63542L17.3117 5.625Z" fill="#545454"/>
<path fill-rule="evenodd" clip-rule="evenodd" d="M79.625 2.675C78.6875 3.575 78.6875 5.075 79.625 6.0125C80.5625 6.95 82.1 6.95 83 6.0125C83.9375 5.1125 83.9375 3.575 83 2.675C82.1 1.775 80.5625 1.775 79.625 2.675ZM98.225 8.9L96.05 9.2375C91.925 10.175 89.225 11.525 89.225 16.025V25.0625L92.975 25.8125V16.625C92.975 14.525 94.175 13.55 96.05 13.2125L98.225 12.8V8.9ZM69.575 25.1375L73.325 25.8875V15.65C73.325 10.7375 69.5 8.975 66.8375 8.975C65.0375 8.975 63.65 9.425 62.375 10.6625C61.0625 9.425 59.4875 8.9375 58.2125 8.9375C56.375 8.9375 54.8 9.725 53.75 11V9.275L50 10.025V25.1375L53.75 25.8875V15.5C53.75 13.85 54.95 12.6875 56.7875 12.6875C58.5875 12.6875 59.7875 13.85 59.7875 15.5V25.1375L63.5375 25.8875V15.5C63.5375 13.85 64.7375 12.6875 66.5375 12.6875C68.3375 12.6875 69.5375 13.85 69.5375 15.5V25.1375H69.575ZM118.25 17.45C118.25 22.175 114.387 26 109.662 26C104.9 26 101.037 22.175 101.037 17.45C101.037 12.7625 104.9 8.9375 109.662 8.9375C114.387 8.9375 118.25 12.7625 118.25 17.45ZM109.662 22.4375C106.925 22.4375 104.675 20.225 104.675 17.45C104.675 14.7125 106.925 12.5 109.662 12.5C112.4 12.5 114.612 14.7125 114.612 17.45C114.65 20.225 112.437 22.4375 109.662 22.4375ZM83.1875 26L79.4375 25.1375V9.9125L83.1875 9.1625V26Z" fill="#545454"/>
</svg>
