<svg width="120" height="24" viewBox="0 0 120 24" fill="none" xmlns="http://www.w3.org/2000/svg">
<path fill-rule="evenodd" clip-rule="evenodd" d="M79.1382 0.00930052H99.8737V3.83647H91.6474V23.9721H87.5342V3.83647H79.1382V0.00930052ZM117.14 16.4759C117.096 16.0527 116.901 15.7202 116.561 15.483C116.217 15.2436 115.775 15.125 115.231 15.125C114.85 15.125 114.522 15.1831 114.248 15.297C113.976 15.411 113.764 15.5644 113.618 15.7597C113.473 15.955 113.401 16.1783 113.394 16.427C113.394 16.6363 113.445 16.8177 113.543 16.9688C113.641 17.1223 113.771 17.2525 113.941 17.3571C114.108 17.4641 114.294 17.5501 114.499 17.6222C114.706 17.6942 114.91 17.7547 115.117 17.8035L116.068 18.036C116.45 18.1244 116.819 18.243 117.175 18.3941C117.528 18.5429 117.849 18.7313 118.131 18.9591C118.412 19.187 118.635 19.4613 118.798 19.7822C118.963 20.1054 119.047 20.4821 119.047 20.9145C119.047 21.5005 118.896 22.0143 118.593 22.4584C118.289 22.9002 117.852 23.2467 117.277 23.4954C116.705 23.7442 116.015 23.8698 115.201 23.8698C114.415 23.8698 113.729 23.7489 113.152 23.5071C112.574 23.2676 112.12 22.9165 111.795 22.4561C111.469 21.9934 111.295 21.4307 111.269 20.7681H113.073C113.099 21.1145 113.211 21.4028 113.401 21.6377C113.592 21.8679 113.843 22.0376 114.15 22.1538C114.459 22.2655 114.806 22.3236 115.187 22.3236C115.585 22.3236 115.936 22.2631 116.24 22.1445C116.54 22.026 116.777 21.8632 116.947 21.647C117.121 21.4377 117.208 21.1866 117.21 20.9006C117.208 20.6402 117.128 20.4239 116.98 20.2519C116.826 20.0822 116.615 19.9403 116.343 19.8241C116.071 19.7101 115.752 19.6055 115.389 19.5148L114.236 19.2242C113.404 19.0126 112.743 18.6894 112.26 18.2593C111.776 17.8268 111.537 17.2571 111.537 16.541C111.537 15.9527 111.697 15.4365 112.025 14.9948C112.348 14.553 112.79 14.2089 113.35 13.9647C113.913 13.7183 114.548 13.5974 115.257 13.5974C115.975 13.5974 116.605 13.7183 117.149 13.9647C117.691 14.2089 118.119 14.5483 118.428 14.9831C118.737 15.4179 118.898 15.9132 118.907 16.4759H117.14ZM107.819 13.7322H109.642V20.7518C109.639 21.3982 109.5 21.9492 109.225 22.4143C108.951 22.8793 108.567 23.2327 108.079 23.4815C107.591 23.7303 107.019 23.8558 106.37 23.8558C105.777 23.8558 105.245 23.7489 104.77 23.5396C104.296 23.3304 103.919 23.0188 103.645 22.6072C103.366 22.1934 103.229 21.6818 103.229 21.0657H105.054C105.056 21.3354 105.119 21.5679 105.235 21.7632C105.352 21.9585 105.514 22.1073 105.719 22.212C105.928 22.3166 106.17 22.3678 106.44 22.3678C106.733 22.3678 106.982 22.3073 107.186 22.1841C107.388 22.0632 107.547 21.8818 107.654 21.64C107.761 21.4005 107.816 21.1052 107.819 20.7518V13.7322ZM100.799 23.8256C100.497 23.8256 100.241 23.721 100.027 23.5117C99.8132 23.3048 99.7063 23.0513 99.7086 22.7514C99.7063 22.4608 99.8132 22.212 100.027 22.0027C100.241 21.7934 100.497 21.6888 100.799 21.6888C101.09 21.6888 101.343 21.7934 101.557 22.0027C101.773 22.212 101.883 22.4608 101.885 22.7514C101.883 22.949 101.834 23.1304 101.731 23.2932C101.629 23.4582 101.499 23.5861 101.334 23.6815C101.171 23.7768 100.994 23.8256 100.799 23.8256ZM24.3023 23.7931L5.14086 0H0V23.9628H4.11316V5.12226L19.2777 23.9721H45.0355V20.1449H28.4131V13.8206H41.7803V9.99341H28.4131V3.83647H45.0355V0.00930052H24.2999V3.83647H24.3023V23.7931ZM60.9138 17.1362L58.2166 13.7834L49.9926 24H55.3893L60.9138 17.1362ZM55.3893 0.0209262H50.0066L69.2866 23.9814H74.6832L65.0432 12.0093L74.6693 0.0372021L69.2866 0.0465026L62.3484 8.66344L55.3893 0.0209262Z" fill="#545454"/>
</svg>
