<svg width="104" height="26" viewBox="0 0 104 26" fill="none" xmlns="http://www.w3.org/2000/svg">
<path fill-rule="evenodd" clip-rule="evenodd" d="M8.87504 15.2063C11.7664 15.8322 14.3404 16.3894 14.3404 18.9569C14.3404 21.1236 12.4511 22.308 9.178 22.3094C5.93811 22.3094 4.21778 20.5833 4.04878 18.0093H0C0.134333 21.9382 2.59856 26 8.97578 26C14.7117 26 18.4903 23.1559 18.4903 18.7879C18.4903 13.2654 14.0384 12.2663 10.2483 11.4157C7.43909 10.7852 4.99344 10.2363 4.99344 7.98778C4.99344 5.85433 6.71378 4.66989 9.51455 4.66989C12.5854 4.66989 14.1714 6.565 14.2047 8.93533H18.2202C18.1191 4.433 15.1493 0.979333 9.51455 0.979333C4.18456 0.979333 0.944667 4.26256 0.944667 8.08889C0.944667 13.4895 5.17037 14.4043 8.87504 15.2063ZM23.283 25.5248H27.2985V11.1699H30.2337V7.95311H27.2985V3.38289H23.283V7.95311H20.6166V11.1699H23.283V25.5248ZM44.2361 7.95456V18.2809C44.2361 21.0224 42.9534 22.3773 40.5253 22.3773C38.0958 22.3773 36.8131 21.0239 36.8131 18.2809V7.95456H32.7976V18.0787C32.7976 22.581 34.8559 25.9336 40.5239 25.9336C46.1933 25.9336 48.2517 22.581 48.2517 18.0787V7.95456H44.2361ZM68.5995 0.135778H64.584L64.5854 10.2584C63.6061 8.76922 61.7168 7.55011 58.9839 7.55011C53.8214 7.55011 50.8863 11.7144 50.8863 16.7584C50.8863 21.7692 53.8214 25.9336 58.9839 25.9336C61.7168 25.9336 63.7751 24.8502 64.8888 23.0216V25.5277H68.5995V0.135778ZM54.899 16.7599C54.899 13.5431 56.7898 11.1063 59.826 11.1063C62.8969 11.1063 64.753 13.5431 64.753 16.7599C64.753 19.9088 62.8969 22.3802 59.826 22.3802C56.7883 22.3802 54.899 19.9088 54.899 16.7599ZM74.503 0C73.0181 0 71.9723 1.05011 71.9723 2.53933C71.9723 3.99533 73.0195 5.01078 74.503 5.01078C75.9547 5.01078 77.0004 3.99533 77.0004 2.53933C77.0004 1.05011 75.9532 0 74.503 0ZM76.4949 25.5277H72.4793V7.956H76.4949V25.5277ZM88.2714 7.55011C82.7031 7.55011 79.1945 11.817 79.1945 16.7599C79.1945 21.7028 82.7031 25.935 88.2714 25.935C93.8715 25.935 97.3815 21.7028 97.3815 16.7599C97.3815 11.8156 93.873 7.55011 88.2714 7.55011ZM93.3645 16.7599C93.3645 20.1457 91.2051 22.3802 88.27 22.3802C85.3681 22.3802 83.2087 20.1457 83.2087 16.7599C83.2087 13.3409 85.3681 11.1063 88.27 11.1063C91.2051 11.1063 93.3645 13.3409 93.3645 16.7599ZM103.809 25.4731H99.7936V21.4445H103.809V25.4731Z" fill="#545454"/>
</svg>
