<svg width="166" height="24" viewBox="0 0 166 24" fill="none" xmlns="http://www.w3.org/2000/svg">
<path fill-rule="evenodd" clip-rule="evenodd" d="M20 0C14.6667 0 11.3333 2.66667 10 8C12 5.33333 14.3333 4.33333 17 5C18.5215 5.38 19.6089 6.48444 20.8126 7.70593C22.7733 9.6963 25.043 12 30 12C35.3333 12 38.6667 9.33333 40 4C38 6.66667 35.6667 7.66667 33 7C31.4785 6.62 30.3911 5.51556 29.1874 4.29407C27.2267 2.3037 24.957 0 20 0ZM10 12C4.66667 12 1.33333 14.6667 0 20C2 17.3333 4.33333 16.3333 7 17C8.52148 17.3807 9.60889 18.4844 10.8126 19.7059C12.7733 21.6963 15.043 24 20 24C25.3333 24 28.6667 21.3333 30 16C28 18.6667 25.6667 19.6667 23 19C21.4785 18.62 20.3911 17.5156 19.1874 16.2941C17.2267 14.3037 14.957 12 10 12Z" fill="#545454"/>
<path fill-rule="evenodd" clip-rule="evenodd" d="M63.4324 10.8827H59.5257V18.444C59.5257 20.4604 60.8489 20.4289 63.4324 20.3028V23.3589C58.2025 23.989 56.1231 22.5397 56.1231 18.444V10.8827H53.2246V7.60612H56.1231V3.37444L59.5257 2.36626V7.60612H63.4324V10.8827ZM78.3245 7.60612H81.7271V23.3589H78.3245V21.0905C77.1273 22.7603 75.2685 23.7685 72.8111 23.7685C68.5263 23.7685 64.9662 20.1453 64.9662 15.4825C64.9662 10.7882 68.5263 7.19655 72.8111 7.19655C75.2685 7.19655 77.1273 8.20475 78.3245 9.84304V7.60612ZM73.3466 20.5234C76.1821 20.5234 78.3245 18.4125 78.3245 15.4825C78.3245 12.5525 76.1821 10.4416 73.3466 10.4416C70.5112 10.4416 68.3688 12.5525 68.3688 15.4825C68.3688 18.4125 70.5112 20.5234 73.3466 20.5234ZM87.3981 5.24321C86.2009 5.24321 85.2242 4.23503 85.2242 3.06933C85.225 2.49312 85.4547 1.94082 85.8618 1.53338C86.2697 1.12593 86.8219 0.89655 87.3981 0.895455C87.9743 0.89655 88.5265 1.12593 88.9344 1.53338C89.3415 1.94082 89.5711 2.49312 89.572 3.06933C89.572 4.23503 88.5953 5.24321 87.3981 5.24321ZM85.6968 23.3589V7.60612H89.0994V23.3589H85.6968ZM93.0376 23.3589V0.359863H96.4401V23.3589H93.0376ZM118.525 7.60612H122.117L117.171 23.3589H113.831L110.555 12.7415L107.247 23.3589H103.907L98.9606 7.60612H102.552L105.608 18.4755L108.916 7.60612H112.161L115.438 18.4755L118.525 7.60612ZM126.339 5.24321C125.142 5.24321 124.165 4.23503 124.165 3.06933C124.166 2.49312 124.395 1.94082 124.803 1.53338C125.21 1.12593 125.763 0.89655 126.339 0.895455C126.915 0.89655 127.467 1.12593 127.875 1.53338C128.282 1.94082 128.512 2.49312 128.513 3.06933C128.513 4.23503 127.536 5.24321 126.339 5.24321ZM124.638 23.3589V7.60612H128.04V23.3589H124.638ZM140.264 7.19655C143.793 7.19655 146.313 9.59099 146.313 13.6867V23.3589H142.911V14.0333C142.911 11.6388 141.524 10.3786 139.382 10.3786C137.145 10.3786 135.381 11.7019 135.381 14.9154V23.3589H131.978V7.60612H135.381V9.6225C136.421 7.98422 138.122 7.19655 140.264 7.19655ZM162.444 1.30503H165.847V23.3589H162.444V21.0905C161.247 22.7603 159.388 23.7685 156.931 23.7685C152.646 23.7685 149.086 20.1453 149.086 15.4825C149.086 10.7882 152.646 7.19655 156.931 7.19655C159.388 7.19655 161.247 8.20475 162.444 9.84304V1.30503ZM157.466 20.5234C160.302 20.5234 162.444 18.4125 162.444 15.4825C162.444 12.5525 160.302 10.4416 157.466 10.4416C154.631 10.4416 152.488 12.5525 152.488 15.4825C152.488 18.4125 154.631 20.5234 157.466 20.5234Z" fill="#545454"/>
</svg>
